<?xml version="1.0" encoding="UTF-8" standalone="no"?>
<!--?xml version="1.0" encoding="utf-8"?-->

<!-- Generator: Adobe Illustrator 18.1.1, SVG Export Plug-In . SVG Version: 6.00 Build 0)  -->

<svg
   version="1.1"
   id="_x31_0"
   x="0px"
   y="0px"
   viewBox="0 0 485.27701 407.965"
   style="opacity:1"
   xml:space="preserve"
   sodipodi:docname="rezi.svg"
   inkscape:version="1.1 (c68e22c387, 2021-05-23)"
   width="485.27701"
   height="407.965"
   xmlns:inkscape="http://www.inkscape.org/namespaces/inkscape"
   xmlns:sodipodi="http://sodipodi.sourceforge.net/DTD/sodipodi-0.dtd"
   xmlns="http://www.w3.org/2000/svg"
   xmlns:svg="http://www.w3.org/2000/svg"><defs
   id="defs19" /><sodipodi:namedview
   id="namedview17"
   pagecolor="#ffffff"
   bordercolor="#666666"
   borderopacity="1.0"
   inkscape:pageshadow="2"
   inkscape:pageopacity="0.0"
   inkscape:pagecheckerboard="0"
   showgrid="false"
   inkscape:zoom="0.60214562"
   inkscape:cx="-21.589462"
   inkscape:cy="80.545301"
   inkscape:window-width="1755"
   inkscape:window-height="1057"
   inkscape:window-x="1933"
   inkscape:window-y="1072"
   inkscape:window-maximized="1"
   inkscape:current-layer="g14"
   height="511px"
   lock-margins="false"
   fit-margin-top="0"
   fit-margin-left="0"
   fit-margin-right="0"
   fit-margin-bottom="0" />
<style
   type="text/css"
   id="style2">
	.st0{fill:#374149;}
</style>
<g
   id="g14"
   transform="translate(-13.362,-104.035)">
	<polygon
   class="st0"
   points="391.369,261.351 381.432,219.988 309.658,219.988 309.029,260.313 309.013,261.191 309.013,261.351 "
   style="fill:#58594f"
   id="polygon4" />
	<polygon
   class="st0"
   points="309.658,329.961 310.044,329.961 309.658,330.121 409.025,330.121 400.904,297.687 399.705,292.789 399.681,292.801 399.643,292.645 353.025,312.058 "
   style="fill:#58594f"
   id="polygon6" />
	<path
   class="st0"
   d="m 43.548,384.406 v 0.16 h 431.84 v -27.683 l -57.652,-184.63 c -2.629,-8.418 -10.422,-14.148 -19.242,-14.148 h -229.942 -33.89 -14.184 c -8.812,0 -16.605,5.726 -19.234,14.145 L 43.548,356.883 v 27.437 l -0.004,0.086 z M 428.444,348.61 H 295.608 V 201.5 h 95.949 l 29.512,117.578 z M 205.021,283.121 v 16.637 h -28.008 v -16.637 z m 0,33.969 v 16.637 H 177.013 V 317.09 Z m 47.235,0 v 16.637 H 224.248 V 317.09 Z m 0,-33.969 v 16.637 H 224.248 V 283.121 Z M 130.428,241.203 v -36.187 c 0,-2.219 1.758,-3.977 3.977,-3.977 h 113.23 c 2.218,0 3.977,1.758 3.977,3.977 v 36.187 c 0,2.172 -1.758,3.973 -3.977,3.973 h -113.23 c -2.22,0 -3.977,-1.801 -3.977,-3.973 z m 27.359,58.555 h -28.004 v -16.637 h 28.004 z m 0,17.332 v 16.637 H 129.783 V 317.09 Z"
   style="fill:#58594f"
   id="path8" />
	<path
   class="st0"
   d="m 163.415,104.035 h 0.02 v 29.809 0.183 0 0.16 h 46.824 v -30.152 c -46.824,0 0,0 -46.844,0 z"
   style="fill:#58594f"
   id="path10"
   sodipodi:nodetypes="ccccccccc" />
	<path
   class="st0"
   d="M 489.412,401.992 H 22.592 c -5.098,0 -9.23,4.133 -9.23,9.226 v 20.122 51.312 20.122 c 0,5.094 4.133,9.226 9.23,9.226 h 466.82 c 5.094,0 9.227,-4.133 9.227,-9.226 V 482.652 431.34 411.218 c 0,-5.093 -4.133,-9.226 -9.227,-9.226 z M 255.998,472.66 c -8.969,0 -16.246,-7.27 -16.246,-16.246 0,-8.973 7.278,-16.246 16.246,-16.246 8.977,0 16.25,7.274 16.25,16.246 0,8.976 -7.273,16.246 -16.25,16.246 z"
   style="fill:#58594f"
   id="path12" />
</g>
</svg>
